{
    "asset" : {
        "generator" : "Khronos glTF Blender I/O v3.3.27",
        "version" : "2.0"
    },
    "scene" : 0,
    "scenes" : [
        {
            "name" : "Scene",
            "nodes" : [
                21
            ]
        }
    ],
    "nodes" : [
        {
            "name" : "Bone.003",
            "rotation" : [
                -0.05102335661649704,
                -0.0005439817323349416,
                -0.017403170466423035,
                0.99854576587677
            ],
            "scale" : [
                1,
                0.9999999403953552,
                1
            ],
            "translation" : [
                -1.4712497886648634e-10,
                0.6202401518821716,
                4.927896668505127e-08
            ]
        },
        {
            "children" : [
                0
            ],
            "name" : "neck",
            "rotation" : [
                2.9237116905278526e-07,
                -0.9899102449417114,
                -0.14169573783874512,
                1.608820639376063e-06
            ],
            "translation" : [
                9.190870287056896e-10,
                2.090831995010376,
                -1.789399206586495e-08
            ]
        },
        {
            "name" : "hand.l",
            "rotation" : [
                -0.09142112731933594,
                0.07718752324581146,
                -0.018040074035525322,
                0.992652416229248
            ],
            "scale" : [
                1,
                1,
                0.9999999403953552
            ],
            "translation" : [
                4.470348358154297e-08,
                1.1647120714187622,
                -8.460483513772488e-08
            ]
        },
        {
            "name" : "thumb.l",
            "rotation" : [
                0.1944853514432907,
                0.9750463366508484,
                0.061169251799583435,
                0.0878547728061676
            ],
            "scale" : [
                0.9999998211860657,
                1,
                0.9999998807907104
            ],
            "translation" : [
                0.10981209576129913,
                1.2271041870117188,
                -0.02630002424120903
            ]
        },
        {
            "children" : [
                2,
                3
            ],
            "name" : "arm3.l",
            "rotation" : [
                -0.125129833817482,
                -0.0226910337805748,
                -0.12140320986509323,
                0.9844231605529785
            ],
            "scale" : [
                1.0000001192092896,
                1,
                1
            ],
            "translation" : [
                3.725290298461914e-09,
                1.8174186944961548,
                4.549656296148896e-08
            ]
        },
        {
            "children" : [
                4
            ],
            "name" : "arm2.l",
            "rotation" : [
                -0.03895428404211998,
                -0.7074853181838989,
                -0.09225765615701675,
                0.6995968222618103
            ],
            "scale" : [
                0.9999999403953552,
                0.9999998807907104,
                1
            ],
            "translation" : [
                -1.1536145905211015e-07,
                0.8504634499549866,
                -1.7671190732926334e-08
            ]
        },
        {
            "children" : [
                5
            ],
            "name" : "arm1.l",
            "rotation" : [
                0.04338269308209419,
                0.038553886115550995,
                -0.6631647348403931,
                0.7462198734283447
            ],
            "scale" : [
                1.0000001192092896,
                1.0000001192092896,
                1.0000001192092896
            ],
            "translation" : [
                0.713001549243927,
                1.7571022510528564,
                -0.06257514655590057
            ]
        },
        {
            "name" : "hand.r.001",
            "rotation" : [
                0.02433360554277897,
                -0.08985477685928345,
                0.08995083719491959,
                0.9915860295295715
            ],
            "scale" : [
                0.9999998807907104,
                1,
                1
            ],
            "translation" : [
                1.30385160446167e-07,
                1.1647124290466309,
                -4.470348358154297e-08
            ]
        },
        {
            "name" : "thumb.r.001",
            "rotation" : [
                -0.003462188644334674,
                -0.8881505727767944,
                -0.20384864509105682,
                0.4118525981903076
            ],
            "scale" : [
                0.9999999403953552,
                1.0000001192092896,
                1
            ],
            "translation" : [
                -0.020045340061187744,
                1.2271045446395874,
                0.11112407594919205
            ]
        },
        {
            "children" : [
                7,
                8
            ],
            "name" : "arm3.r.001",
            "rotation" : [
                0.11862866580486298,
                -0.054620977491140366,
                0.12776310741901398,
                0.9831685423851013
            ],
            "scale" : [
                1,
                0.9999999403953552,
                1
            ],
            "translation" : [
                3.864988684654236e-08,
                1.8174189329147339,
                5.587935447692871e-09
            ]
        },
        {
            "children" : [
                9
            ],
            "name" : "arm2.r.001",
            "rotation" : [
                0.03298390656709671,
                0.05553901568055153,
                0.09455680847167969,
                0.9934216141700745
            ],
            "scale" : [
                1,
                0.9999998807907104,
                1
            ],
            "translation" : [
                2.262731868540868e-08,
                0.8504635691642761,
                6.201922531090531e-09
            ]
        },
        {
            "children" : [
                10
            ],
            "name" : "arm1.r.001",
            "rotation" : [
                0.043381888419389725,
                -0.03855371102690697,
                0.6631647944450378,
                0.7462198734283447
            ],
            "scale" : [
                1,
                1.0000001192092896,
                1
            ],
            "translation" : [
                -0.7559711933135986,
                1.7571024894714355,
                -0.0625757947564125
            ]
        },
        {
            "children" : [
                1,
                6,
                11
            ],
            "name" : "upper_torso",
            "rotation" : [
                -0.13576330244541168,
                3.5689993183041224e-07,
                -1.3970582912747886e-08,
                0.9907413125038147
            ],
            "translation" : [
                1.6554047022054874e-10,
                1.6313538551330566,
                3.1285093626820526e-08
            ]
        },
        {
            "name" : "leg3.l",
            "rotation" : [
                -1.7067569046957942e-07,
                -0.6476998329162598,
                0.7618955969810486,
                4.8899991611506266e-08
            ],
            "scale" : [
                1,
                1.000000238418579,
                1.0000001192092896
            ],
            "translation" : [
                1.2691792505847843e-08,
                2.2125296592712402,
                -1.9689848329562665e-07
            ]
        },
        {
            "children" : [
                13
            ],
            "name" : "leg2.l",
            "rotation" : [
                -0.06244262680411339,
                -0.9692761898040771,
                0.23742520809173584,
                0.015295681543648243
            ],
            "scale" : [
                1,
                0.9999999403953552,
                1.0000001192092896
            ],
            "translation" : [
                9.872019290924072e-08,
                1.2887376546859741,
                9.811373047341476e-08
            ]
        },
        {
            "children" : [
                14
            ],
            "name" : "leg1.l",
            "rotation" : [
                -0.014171677641570568,
                -0.21997688710689545,
                -0.9733843803405762,
                0.06270723044872284
            ],
            "scale" : [
                1,
                1,
                1.0000005960464478
            ],
            "translation" : [
                0.43406933546066284,
                2.6094362226558587e-08,
                -8.71268142077497e-08
            ]
        },
        {
            "name" : "leg3.r.001",
            "rotation" : [
                -8.614169928478077e-07,
                -0.6476998329162598,
                0.7618955969810486,
                5.893829211345292e-07
            ],
            "scale" : [
                1,
                1.0000003576278687,
                1.0000001192092896
            ],
            "translation" : [
                6.346626690856283e-08,
                2.2125303745269775,
                3.474912091405713e-08
            ]
        },
        {
            "children" : [
                16
            ],
            "name" : "leg2.r.001",
            "rotation" : [
                -0.0624425895512104,
                0.9692761898040771,
                -0.23742520809173584,
                0.015295108780264854
            ],
            "scale" : [
                0.9999999403953552,
                1.0000003576278687,
                0.9999998807907104
            ],
            "translation" : [
                3.3993273973464966e-08,
                1.2887376546859741,
                2.106290821757284e-07
            ]
        },
        {
            "children" : [
                17
            ],
            "name" : "leg1.r.001",
            "rotation" : [
                -0.014171108603477478,
                0.21997685730457306,
                0.973384439945221,
                0.06270719319581985
            ],
            "scale" : [
                1,
                1,
                1.0000004768371582
            ],
            "translation" : [
                -0.4770393371582031,
                2.419481326398909e-08,
                1.1524039678079134e-07
            ]
        },
        {
            "children" : [
                12,
                15,
                18
            ],
            "name" : "lower_troso",
            "rotation" : [
                0.07803359627723694,
                -1.1886779560654759e-07,
                -9.324357286288887e-09,
                0.9969507455825806
            ],
            "scale" : [
                1,
                0.9999999403953552,
                0.9999999403953552
            ]
        },
        {
            "mesh" : 0,
            "name" : "Cube",
            "skin" : 0
        },
        {
            "children" : [
                20,
                19
            ],
            "name" : "Armature",
            "translation" : [
                -0.00621795654296875,
                -5.047225475311279,
                -0.15240013599395752
            ]
        }
    ],
    "materials" : [
        {
            "doubleSided" : true,
            "name" : "Material",
            "pbrMetallicRoughness" : {
                "baseColorFactor" : [
                    0.800000011920929,
                    0.800000011920929,
                    0.800000011920929,
                    1
                ],
                "metallicFactor" : 0,
                "roughnessFactor" : 0.5
            }
        }
    ],
    "meshes" : [
        {
            "name" : "Cube",
            "primitives" : [
                {
                    "attributes" : {
                        "POSITION" : 0,
                        "NORMAL" : 1,
                        "COLOR_0" : 2,
                        "JOINTS_0" : 3,
                        "WEIGHTS_0" : 4
                    },
                    "indices" : 5,
                    "material" : 0
                }
            ]
        }
    ],
    "skins" : [
        {
            "inverseBindMatrices" : 6,
            "joints" : [
                19,
                12,
                1,
                0,
                6,
                5,
                4,
                2,
                3,
                11,
                10,
                9,
                7,
                8,
                15,
                14,
                13,
                18,
                17,
                16
            ],
            "name" : "Armature"
        }
    ],
    "accessors" : [
        {
            "bufferView" : 0,
            "componentType" : 5126,
            "count" : 920,
            "max" : [
                5.394692420959473,
                1.0716649293899536,
                1.5302717685699463
            ],
            "min" : [
                -5.394692420959473,
                -8.822794914245605,
                -0.8939497470855713
            ],
            "type" : "VEC3"
        },
        {
            "bufferView" : 1,
            "componentType" : 5126,
            "count" : 920,
            "type" : "VEC3"
        },
        {
            "bufferView" : 2,
            "componentType" : 5123,
            "count" : 920,
            "normalized" : true,
            "type" : "VEC4"
        },
        {
            "bufferView" : 3,
            "componentType" : 5121,
            "count" : 920,
            "type" : "VEC4"
        },
        {
            "bufferView" : 4,
            "componentType" : 5126,
            "count" : 920,
            "type" : "VEC4"
        },
        {
            "bufferView" : 5,
            "componentType" : 5123,
            "count" : 1380,
            "type" : "SCALAR"
        },
        {
            "bufferView" : 6,
            "componentType" : 5126,
            "count" : 20,
            "type" : "MAT4"
        }
    ],
    "bufferViews" : [
        {
            "buffer" : 0,
            "byteLength" : 11040,
            "byteOffset" : 0,
            "target" : 34962
        },
        {
            "buffer" : 0,
            "byteLength" : 11040,
            "byteOffset" : 11040,
            "target" : 34962
        },
        {
            "buffer" : 0,
            "byteLength" : 7360,
            "byteOffset" : 22080,
            "target" : 34962
        },
        {
            "buffer" : 0,
            "byteLength" : 3680,
            "byteOffset" : 29440,
            "target" : 34962
        },
        {
            "buffer" : 0,
            "byteLength" : 14720,
            "byteOffset" : 33120,
            "target" : 34962
        },
        {
            "buffer" : 0,
            "byteLength" : 2760,
            "byteOffset" : 47840,
            "target" : 34963
        },
        {
            "buffer" : 0,
            "byteLength" : 1280,
            "byteOffset" : 50600
        }
    ],
    "buffers" : [
        {
            "byteLength" : 51880,
            "uri" : "maybecaracter2rig2.bin"
        }
    ]
}
